<svg width="20" height="20" viewBox="0 0 20 20" fill="none" xmlns="http://www.w3.org/2000/svg">
<g clip-path="url(#clip0_107_7265)">
<path fill-rule="evenodd" clip-rule="evenodd" d="M0.833374 2.365C0.833374 1.95877 0.994746 1.56919 1.28199 1.28195C1.56923 0.994702 1.95882 0.83333 2.36504 0.83333H17.6334C17.8347 0.833001 18.0341 0.872383 18.2202 0.949219C18.4062 1.02606 18.5753 1.13884 18.7177 1.28111C18.8602 1.42338 18.9731 1.59235 19.0502 1.77834C19.1272 1.96433 19.1668 2.16368 19.1667 2.365V17.6333C19.1669 17.8347 19.1274 18.0341 19.0505 18.2202C18.9736 18.4063 18.8607 18.5753 18.7184 18.7178C18.576 18.8602 18.407 18.9731 18.221 19.0502C18.035 19.1272 17.8356 19.1668 17.6342 19.1667H2.36504C2.16383 19.1667 1.96459 19.127 1.7787 19.05C1.59282 18.973 1.42393 18.8601 1.28169 18.7178C1.13945 18.5754 1.02665 18.4065 0.949726 18.2206C0.872802 18.0346 0.833265 17.8354 0.833374 17.6342V2.365ZM8.09004 7.82333H10.5725V9.07C10.9309 8.35333 11.8475 7.70833 13.225 7.70833C15.8659 7.70833 16.4917 9.13583 16.4917 11.755V16.6067H13.8192V12.3517C13.8192 10.86 13.4609 10.0183 12.5509 10.0183C11.2884 10.0183 10.7634 10.9258 10.7634 12.3517V16.6067H8.09004V7.82333ZM3.50671 16.4925H6.18004V7.70833H3.50671V16.4917V16.4925ZM6.56254 4.84333C6.56758 5.07222 6.52685 5.29982 6.44274 5.51276C6.35863 5.7257 6.23283 5.91969 6.07273 6.08336C5.91263 6.24702 5.72146 6.37706 5.51042 6.46584C5.29938 6.55461 5.07274 6.60035 4.84379 6.60035C4.61484 6.60035 4.3882 6.55461 4.17716 6.46584C3.96613 6.37706 3.77495 6.24702 3.61485 6.08336C3.45475 5.91969 3.32895 5.7257 3.24484 5.51276C3.16073 5.29982 3.12 5.07222 3.12504 4.84333C3.13493 4.39404 3.32036 3.96649 3.64161 3.65224C3.96286 3.33798 4.39439 3.16201 4.84379 3.16201C5.29319 3.16201 5.72472 3.33798 6.04597 3.65224C6.36722 3.96649 6.55265 4.39404 6.56254 4.84333Z" fill="black"/>
</g>
<defs>
<clipPath id="clip0_107_7265">
<rect width="20" height="20" fill="white"/>
</clipPath>
</defs>
</svg>
