<svg width="38" height="40" viewBox="0 0 38 40" fill="none" xmlns="http://www.w3.org/2000/svg">
<path d="M33.9805 27.1657H12.2696L13.3597 24.8677L31.4722 24.8338C32.0847 24.8338 32.6097 24.3809 32.7191 23.7546L35.2274 9.22304C35.293 8.84193 35.1946 8.44949 34.954 8.15139C34.835 8.00468 34.6867 7.8865 34.5192 7.80505C34.3518 7.7236 34.1692 7.68083 33.9842 7.67971L10.9426 7.60046L10.7457 6.64201C10.6217 6.03071 10.0894 5.58545 9.48423 5.58545H3.85143C3.5101 5.58545 3.18275 5.72579 2.9414 5.97559C2.70004 6.22539 2.56445 6.5642 2.56445 6.91747C2.56445 7.27075 2.70004 7.60955 2.9414 7.85936C3.18275 8.10916 3.5101 8.2495 3.85143 8.2495H8.44152L9.30194 12.4833L11.4202 23.098L8.69309 27.7053C8.55146 27.9032 8.46616 28.1381 8.44683 28.3835C8.4275 28.6289 8.47492 28.875 8.58371 29.094C8.80246 29.543 9.2436 29.826 9.73214 29.826H12.0217C11.5336 30.497 11.27 31.3143 11.2707 32.1542C11.2707 34.29 12.9478 36.0258 15.0113 36.0258C17.0748 36.0258 18.7519 34.29 18.7519 32.1542C18.7519 31.3127 18.4821 30.4939 18.0009 29.826H23.8743C23.3862 30.497 23.1225 31.3143 23.1233 32.1542C23.1233 34.29 24.8003 36.0258 26.8639 36.0258C28.9274 36.0258 30.6045 34.29 30.6045 32.1542C30.6045 31.3127 30.3347 30.4939 29.8535 29.826H33.9842C34.6915 29.826 35.2711 29.2298 35.2711 28.494C35.269 28.1411 35.1321 27.8034 34.8904 27.5545C34.6486 27.3057 34.3215 27.1659 33.9805 27.1657ZM11.4785 10.2268L32.4712 10.2985L30.4149 22.215L13.9248 22.2452L11.4785 10.2268ZM15.0113 33.3466C14.3769 33.3466 13.8592 32.8108 13.8592 32.1542C13.8592 31.4976 14.3769 30.9618 15.0113 30.9618C15.6457 30.9618 16.1634 31.4976 16.1634 32.1542C16.1634 32.4705 16.042 32.7738 15.8259 32.9974C15.6099 33.221 15.3169 33.3466 15.0113 33.3466ZM26.8639 33.3466C26.2295 33.3466 25.7118 32.8108 25.7118 32.1542C25.7118 31.4976 26.2295 30.9618 26.8639 30.9618C27.4983 30.9618 28.016 31.4976 28.016 32.1542C28.016 32.4705 27.8946 32.7738 27.6785 32.9974C27.4625 33.221 27.1694 33.3466 26.8639 33.3466Z" fill="black"/>
</svg>
