<?xml version="1.0" encoding="utf-8"?>
<svg viewBox="-5 -10 110 135" xmlns="http://www.w3.org/2000/svg">
  <path d="M 52.006 8.908 L 53.838 10.166 C 54.135 10.369 54.444 10.502 54.744 10.557 C 55.041 10.611 55.373 10.592 55.729 10.506 L 57.975 9.94 C 59.252 9.619 60.537 9.697 61.694 10.123 C 62.854 10.549 63.885 11.326 64.651 12.4 L 65.944 14.213 C 66.147 14.498 66.389 14.721 66.655 14.877 C 66.928 15.033 67.241 15.135 67.592 15.17 L 69.897 15.408 C 71.209 15.541 72.393 16.057 73.338 16.854 C 74.28 17.65 74.983 18.729 75.338 20.002 L 75.932 22.143 C 76.026 22.478 76.174 22.771 76.377 23.014 C 76.573 23.256 76.834 23.455 77.155 23.611 L 79.237 24.623 C 80.428 25.201 81.366 26.088 81.979 27.158 C 82.592 28.232 82.885 29.486 82.784 30.799 L 82.612 33.01 C 82.584 33.377 82.623 33.709 82.725 33.994 C 82.827 34.279 83.006 34.56 83.256 34.814 L 84.87 36.475 C 85.788 37.424 86.37 38.58 86.58 39.795 C 86.791 41.014 86.635 42.291 86.092 43.486 L 85.17 45.506 C 85.018 45.842 84.94 46.162 84.94 46.463 C 84.94 46.775 85.014 47.1 85.159 47.428 L 86.104 49.541 C 86.639 50.74 86.787 52.021 86.569 53.236 C 86.35 54.455 85.764 55.607 84.846 56.545 L 83.287 58.135 C 83.041 58.385 82.862 58.662 82.756 58.947 C 82.647 59.248 82.608 59.576 82.631 59.932 L 82.795 62.244 C 82.889 63.557 82.588 64.807 81.971 65.873 C 81.354 66.935 80.409 67.818 79.217 68.389 L 77.209 69.349 C 76.885 69.51 76.623 69.709 76.424 69.943 C 76.229 70.17 76.076 70.467 75.979 70.818 L 75.393 72.881 L 84.659 88.932 C 85.205 89.885 84.877 91.104 83.924 91.651 C 83.69 91.787 83.436 91.869 83.182 91.901 L 73.162 93.201 L 67.017 101.24 C 66.349 102.115 65.096 102.283 64.221 101.615 C 63.974 101.424 63.783 101.19 63.65 100.928 L 53.404 83.178 L 51.994 84.135 C 50.904 84.873 49.674 85.24 48.439 85.237 C 47.197 85.233 45.963 84.862 44.881 84.119 L 43.478 83.158 L 33.22 100.928 C 33.088 101.19 32.896 101.428 32.65 101.616 C 31.775 102.284 30.521 102.116 29.853 101.241 L 23.709 93.202 L 13.689 91.901 C 13.435 91.87 13.185 91.788 12.947 91.651 C 11.993 91.104 11.665 89.885 12.212 88.932 L 21.493 72.854 L 20.946 70.885 C 20.853 70.549 20.704 70.256 20.501 70.014 C 20.306 69.772 20.044 69.573 19.724 69.417 L 17.642 68.405 C 16.45 67.827 15.513 66.94 14.9 65.87 C 14.286 64.796 13.993 63.546 14.095 62.237 L 14.267 60.018 C 14.294 59.651 14.255 59.319 14.154 59.034 C 14.052 58.749 13.872 58.471 13.622 58.213 L 12.009 56.553 C 11.091 55.604 10.509 54.448 10.298 53.229 C 10.087 52.014 10.243 50.737 10.786 49.545 L 11.708 47.518 C 11.861 47.182 11.939 46.862 11.939 46.557 C 11.939 46.245 11.864 45.92 11.72 45.596 L 10.775 43.479 C 10.239 42.28 10.091 41.002 10.31 39.784 C 10.529 38.565 11.114 37.413 12.032 36.475 L 13.591 34.885 C 13.837 34.631 14.017 34.358 14.122 34.073 C 14.232 33.772 14.271 33.444 14.247 33.088 L 14.079 30.78 C 13.986 29.467 14.286 28.217 14.904 27.151 C 15.529 26.077 16.47 25.194 17.657 24.628 L 19.661 23.671 C 19.986 23.518 20.247 23.319 20.447 23.085 C 20.642 22.85 20.794 22.557 20.892 22.21 L 21.525 19.983 C 21.888 18.721 22.599 17.647 23.552 16.85 C 24.501 16.057 25.689 15.553 26.997 15.424 L 29.212 15.21 C 29.556 15.178 29.868 15.077 30.146 14.921 C 30.415 14.764 30.657 14.542 30.864 14.256 L 32.224 12.378 C 32.989 11.319 34.029 10.549 35.2 10.128 C 36.361 9.71 37.65 9.639 38.923 9.967 L 41.068 10.522 C 41.407 10.608 41.739 10.624 42.056 10.569 C 42.357 10.518 42.661 10.389 42.958 10.186 L 44.876 8.897 C 45.958 8.155 47.193 7.792 48.431 7.795 C 49.673 7.799 50.908 8.17 51.986 8.913 L 52.006 8.908 Z M 38.768 55.994 C 38.768 57.1 37.874 57.994 36.768 57.994 C 35.663 57.994 34.768 57.1 34.768 55.994 L 34.768 55.904 C 34.768 54.799 35.663 53.904 36.768 53.904 C 37.874 53.904 38.768 54.799 38.768 55.904 L 38.768 55.994 Z M 38.772 37.396 L 38.772 50.634 C 38.772 51.74 37.878 52.634 36.772 52.634 C 35.667 52.634 34.772 51.74 34.772 50.634 L 34.772 37.4 L 31.846 37.4 L 31.639 59.92 L 58.424 59.92 C 59.295 59.92 60.077 59.604 60.682 59.069 C 61.354 58.479 61.846 57.612 62.061 56.6 L 65.194 41.877 C 65.311 41.33 65.291 40.799 65.163 40.307 C 65.022 39.764 64.737 39.236 64.342 38.748 C 63.971 38.291 63.549 37.947 63.084 37.725 C 62.635 37.51 62.12 37.397 61.553 37.397 L 54.268 37.397 C 53.409 37.397 52.674 36.854 52.393 36.088 L 47.725 26.373 C 47.647 26.205 47.53 26.076 47.401 25.99 C 47.288 25.92 47.143 25.877 46.979 25.877 L 45.35 25.877 C 45.217 25.877 45.104 25.9 45.018 25.94 C 44.924 25.982 44.823 26.065 44.733 26.174 C 44.639 26.283 44.573 26.393 44.538 26.533 C 44.498 26.674 44.491 26.826 44.514 26.983 L 45.627 35.127 C 45.799 36.393 45.018 37.385 43.651 37.385 L 38.764 37.389 L 38.772 37.396 Z M 58.428 63.919 L 29.616 63.911 C 28.515 63.904 27.632 63.005 27.64 61.904 L 27.874 35.4 C 27.874 34.294 28.768 33.4 29.874 33.4 L 41.374 33.4 L 40.569 27.521 C 40.472 26.802 40.518 26.107 40.702 25.454 C 40.913 24.72 41.229 24.216 41.683 23.618 C 42.147 23.064 42.702 22.63 43.327 22.337 C 43.96 22.04 44.643 21.884 45.362 21.884 L 46.991 21.884 C 47.929 21.884 48.815 22.15 49.569 22.638 C 50.307 23.115 50.917 23.802 51.331 24.661 L 55.53 33.4 L 61.565 33.4 C 62.729 33.4 63.827 33.65 64.831 34.134 C 65.823 34.615 66.706 35.322 67.448 36.236 C 68.194 37.158 68.741 38.193 69.034 39.31 C 69.319 40.396 69.358 41.54 69.112 42.708 L 65.979 57.431 C 65.585 59.291 64.636 60.916 63.319 62.072 C 61.995 63.232 60.311 63.924 58.436 63.924 L 58.428 63.919 Z M 48.455 14.556 C 57.28 14.556 65.267 18.134 71.049 23.916 C 76.831 29.697 80.409 37.686 80.409 46.51 C 80.409 55.334 76.831 63.322 71.049 69.104 C 65.268 74.886 57.279 78.463 48.455 78.463 C 39.635 78.463 31.643 74.885 25.861 69.104 C 20.079 63.322 16.502 55.334 16.502 46.51 C 16.502 37.689 20.08 29.698 25.861 23.916 C 31.643 18.134 39.631 14.556 48.455 14.556 L 48.455 14.556 Z M 68.221 26.74 C 63.163 21.682 56.174 18.553 48.455 18.553 C 40.736 18.553 33.748 21.682 28.689 26.74 C 23.631 31.799 20.502 38.787 20.502 46.506 C 20.502 54.225 23.631 61.213 28.689 66.272 C 33.748 71.331 40.736 74.46 48.455 74.46 C 56.174 74.46 63.162 71.331 68.221 66.272 C 73.28 61.214 76.409 54.225 76.409 46.506 C 76.409 38.787 73.28 31.799 68.221 26.74 Z M 72.909 76.498 C 72.042 77.104 71.014 77.487 69.901 77.596 L 67.678 77.811 C 67.331 77.842 67.014 77.944 66.741 78.096 C 66.475 78.252 66.229 78.479 66.022 78.764 L 64.663 80.639 C 63.897 81.698 62.862 82.467 61.686 82.889 C 60.526 83.307 59.237 83.377 57.963 83.049 L 57.948 83.045 L 65.674 96.432 L 70.506 90.112 C 70.823 89.706 71.292 89.417 71.842 89.346 L 79.729 88.323 L 72.905 76.499 L 72.909 76.498 Z M 38.944 83.072 L 38.932 83.076 C 37.659 83.397 36.37 83.319 35.21 82.893 C 34.049 82.467 33.018 81.69 32.253 80.619 L 30.96 78.811 C 30.756 78.526 30.514 78.299 30.245 78.143 C 29.971 77.983 29.659 77.885 29.315 77.85 L 27.002 77.616 C 25.889 77.502 24.862 77.112 24.002 76.506 L 17.178 88.326 L 25.065 89.35 C 25.616 89.42 26.084 89.709 26.397 90.119 L 31.229 96.439 L 38.944 83.08 L 38.944 83.072 Z M 51.596 13.459 L 49.764 12.202 C 49.35 11.917 48.893 11.776 48.455 11.772 C 48.01 11.772 47.553 11.913 47.135 12.194 L 45.217 13.483 C 44.451 14.01 43.623 14.35 42.748 14.499 C 41.893 14.647 41.002 14.604 40.096 14.37 L 37.951 13.815 C 37.463 13.69 36.987 13.713 36.565 13.866 C 36.155 14.014 35.772 14.303 35.479 14.71 L 34.119 16.588 C 33.576 17.338 32.912 17.94 32.151 18.378 C 31.393 18.811 30.541 19.077 29.608 19.167 L 27.393 19.381 C 26.901 19.428 26.459 19.612 26.119 19.897 C 25.784 20.178 25.522 20.577 25.389 21.053 L 24.756 23.288 C 24.502 24.178 24.084 24.967 23.514 25.647 C 22.944 26.323 22.233 26.87 21.401 27.264 L 19.397 28.221 C 18.951 28.436 18.6 28.756 18.377 29.139 C 18.155 29.526 18.045 29.991 18.08 30.487 L 18.248 32.796 C 18.315 33.721 18.19 34.604 17.889 35.428 C 17.584 36.256 17.1 37.01 16.451 37.671 L 14.893 39.26 C 14.545 39.616 14.326 40.038 14.248 40.475 C 14.17 40.913 14.229 41.385 14.432 41.842 L 15.377 43.96 C 15.752 44.803 15.94 45.67 15.94 46.549 C 15.936 47.44 15.744 48.311 15.366 49.143 L 14.444 51.17 C 14.237 51.624 14.178 52.1 14.252 52.545 C 14.326 52.983 14.541 53.405 14.881 53.76 L 16.494 55.42 C 17.139 56.084 17.616 56.846 17.916 57.678 C 18.217 58.51 18.334 59.397 18.264 60.307 L 18.092 62.526 C 18.053 63.022 18.159 63.487 18.381 63.878 C 18.604 64.264 18.948 64.592 19.389 64.803 L 21.471 65.815 C 22.299 66.217 23.006 66.764 23.573 67.444 C 24.139 68.112 24.553 68.913 24.803 69.811 L 25.401 71.956 C 25.534 72.428 25.791 72.831 26.135 73.12 C 26.475 73.405 26.912 73.592 27.405 73.643 L 29.709 73.878 C 30.635 73.971 31.487 74.249 32.241 74.686 C 32.998 75.128 33.659 75.733 34.205 76.495 L 35.498 78.303 C 35.783 78.702 36.162 78.987 36.58 79.143 C 36.998 79.296 37.475 79.323 37.959 79.202 L 40.205 78.635 C 41.096 78.413 41.991 78.378 42.862 78.538 C 43.729 78.694 44.557 79.034 45.311 79.553 L 47.147 80.811 C 47.561 81.096 48.018 81.241 48.455 81.241 C 48.904 81.241 49.365 81.104 49.776 80.827 L 51.69 79.53 C 52.467 79.002 53.295 78.663 54.147 78.514 C 55.01 78.37 55.897 78.409 56.803 78.643 L 58.955 79.198 C 59.443 79.323 59.92 79.299 60.342 79.147 C 60.756 78.999 61.135 78.71 61.428 78.303 L 62.787 76.428 C 63.33 75.674 63.994 75.073 64.756 74.639 C 65.522 74.206 66.373 73.94 67.299 73.85 L 69.506 73.635 C 70.002 73.585 70.447 73.401 70.787 73.116 C 71.123 72.835 71.381 72.436 71.518 71.96 L 72.15 69.725 C 72.4 68.842 72.818 68.053 73.393 67.374 C 73.963 66.694 74.67 66.147 75.506 65.749 L 77.514 64.799 C 77.955 64.588 78.307 64.264 78.529 63.877 C 78.752 63.491 78.861 63.026 78.826 62.53 L 78.662 60.217 C 78.596 59.295 78.721 58.405 79.022 57.584 C 79.326 56.756 79.811 56.002 80.455 55.342 L 82.014 53.752 C 82.361 53.397 82.58 52.975 82.658 52.538 C 82.736 52.1 82.678 51.628 82.475 51.17 L 81.529 49.057 C 81.154 48.217 80.967 47.346 80.967 46.467 C 80.967 45.581 81.162 44.706 81.537 43.874 L 82.459 41.846 C 82.666 41.385 82.725 40.913 82.65 40.471 C 82.576 40.034 82.361 39.612 82.022 39.26 L 80.408 37.6 C 79.768 36.936 79.287 36.178 78.986 35.342 C 78.686 34.51 78.568 33.624 78.639 32.713 L 78.811 30.495 C 78.85 29.995 78.744 29.53 78.521 29.143 C 78.299 28.756 77.951 28.428 77.514 28.217 L 75.432 27.206 C 74.604 26.803 73.896 26.256 73.33 25.577 C 72.764 24.909 72.35 24.108 72.1 23.209 L 71.506 21.069 C 71.373 20.596 71.115 20.194 70.771 19.905 C 70.432 19.62 69.994 19.432 69.502 19.381 L 67.197 19.143 C 66.271 19.049 65.424 18.772 64.662 18.334 C 63.904 17.893 63.24 17.288 62.701 16.53 L 61.408 14.717 C 61.123 14.319 60.744 14.03 60.326 13.877 C 59.908 13.725 59.432 13.698 58.947 13.819 L 56.701 14.385 C 55.811 14.608 54.916 14.643 54.045 14.483 C 53.174 14.327 52.35 13.987 51.592 13.467 L 51.596 13.459 Z" transform="matrix(0.9999999999999999, 0, 0, 0.9999999999999999, 0, 0)"/>
</svg>