<svg width="38" height="37" viewBox="0 0 38 37" fill="none" xmlns="http://www.w3.org/2000/svg">
<path d="M25.5556 28.682C24.3179 28.682 23.1309 28.2085 22.2557 27.3658C21.3806 26.523 20.8889 25.38 20.8889 24.1882C20.8889 22.9964 21.3806 21.8534 22.2557 21.0107C23.1309 20.1679 24.3179 19.6945 25.5556 19.6945C26.7932 19.6945 27.9802 20.1679 28.8554 21.0107C29.7306 21.8534 30.2222 22.9964 30.2222 24.1882C30.2222 25.38 29.7306 26.523 28.8554 27.3658C27.9802 28.2085 26.7932 28.682 25.5556 28.682ZM13.1111 28.682C11.8734 28.682 10.6865 28.2085 9.81129 27.3658C8.93612 26.523 8.44446 25.38 8.44446 24.1882C8.44446 22.9964 8.93612 21.8534 9.81129 21.0107C10.6865 20.1679 11.8734 19.6945 13.1111 19.6945C14.3488 19.6945 15.5358 20.1679 16.411 21.0107C17.2861 21.8534 17.7778 22.9964 17.7778 24.1882C17.7778 25.38 17.2861 26.523 16.411 27.3658C15.5358 28.2085 14.3488 28.682 13.1111 28.682ZM25.5556 16.6986C24.3179 16.6986 23.1309 16.2252 22.2557 15.3824C21.3806 14.5397 20.8889 13.3967 20.8889 12.2049C20.8889 11.013 21.3806 9.87004 22.2557 9.0273C23.1309 8.18455 24.3179 7.71111 25.5556 7.71111C26.7932 7.71111 27.9802 8.18455 28.8554 9.0273C29.7306 9.87004 30.2222 11.013 30.2222 12.2049C30.2222 13.3967 29.7306 14.5397 28.8554 15.3824C27.9802 16.2252 26.7932 16.6986 25.5556 16.6986ZM13.1111 16.6986C11.8734 16.6986 10.6865 16.2252 9.81129 15.3824C8.93612 14.5397 8.44446 13.3967 8.44446 12.2049C8.44446 11.013 8.93612 9.87004 9.81129 9.0273C10.6865 8.18455 11.8734 7.71111 13.1111 7.71111C14.3488 7.71111 15.5358 8.18455 16.411 9.0273C17.2861 9.87004 17.7778 11.013 17.7778 12.2049C17.7778 13.3967 17.2861 14.5397 16.411 15.3824C15.5358 16.2252 14.3488 16.6986 13.1111 16.6986Z" fill="black"/>
</svg>
