<svg width="60" height="61" viewBox="0 0 60 61" fill="none" xmlns="http://www.w3.org/2000/svg">
<g clip-path="url(#clip0_103_5495)">
<path d="M54.6936 24.4628C54.2992 11.1825 43.3742 0.5 29.9999 0.5C16.6257 0.5 5.70065 11.1825 5.30618 24.4628L3.52936 26.2396V38.2898L5.29406 40.0545V48.2647C5.29406 53.0652 9.19948 56.9706 13.9999 56.9706H16.1858C16.9143 59.0246 18.8758 60.5 21.1764 60.5H24.7058C27.0079 60.5 28.9705 59.0225 29.6978 56.9664C29.7987 56.9681 29.8997 56.9706 29.9999 56.9706C38.5221 56.9706 45.6527 50.8981 47.2922 42.8529H51.9074L56.4705 38.2898V26.2396L54.6936 24.4628ZM29.9999 4.02941C40.4742 4.02941 49.1954 11.674 50.8807 21.6765H47.2922C45.6527 13.6313 38.5221 7.55882 29.9999 7.55882C21.4778 7.55882 14.3472 13.6313 12.7077 21.6765H9.11924C10.8045 11.674 19.5257 4.02941 29.9999 4.02941ZM43.6709 21.6765C37.9663 21.6594 33.9369 22.0068 30.6148 17.1506L29.0016 14.7926L27.6152 17.2907C25.5952 20.9306 22.8749 21.6765 19.4117 21.6765H16.329C17.9002 15.5944 23.4337 11.0882 29.9999 11.0882C36.5662 11.0882 42.0997 15.5944 43.6709 21.6765ZM12.3529 39.3235H9.55442L7.05877 36.8279V27.7015L9.55442 25.2059H12.3529V39.3235ZM8.82348 48.2647V42.8529H12.7043C13.3687 46.1441 14.9582 49.1652 17.313 51.5916C16.8194 52.1191 16.4322 52.7467 16.1858 53.4412H13.9999C11.1456 53.4412 8.82348 51.1191 8.82348 48.2647ZM24.7058 56.9706H21.1764C20.2032 56.9706 19.4117 56.1791 19.4117 55.2059C19.4117 54.2328 20.2032 53.4412 21.1764 53.4412H24.7058C25.6789 53.4412 26.4705 54.2328 26.4705 55.2059C26.4705 56.1791 25.6789 56.9706 24.7058 56.9706ZM44.1176 39.3235C44.1176 47.108 37.7844 53.4412 29.9999 53.4412C29.8988 53.4412 29.7968 53.4392 29.6949 53.4368C28.9652 51.3851 27.0048 49.9118 24.7058 49.9118C21.0823 49.9198 21.1401 49.8936 20.6884 49.9352C17.6247 47.2498 15.8823 43.4248 15.8823 39.3235V25.2059H19.4117C22.5349 25.2059 26.3384 24.6909 29.2827 21.1076C33.1674 25.1786 37.9147 25.2059 42.1762 25.2059H44.1176V39.3235ZM52.9411 36.8279L50.4455 39.3235H47.647V25.2059H50.4455L52.9411 27.7015V36.8279Z" fill="#242424"/>
</g>
<defs>
<clipPath id="clip0_103_5495">
<rect width="60" height="60" fill="white" transform="translate(0 0.5)"/>
</clipPath>
</defs>
</svg>
