<svg width="16" height="17" viewBox="0 0 16 17" fill="none" xmlns="http://www.w3.org/2000/svg">
<path d="M12 11.2691C11.4747 11.2691 11 11.4758 10.644 11.8071L5.94 9.06912C5.97333 8.91579 6 8.76246 6 8.60246C6 8.44246 5.97333 8.28912 5.94 8.13579L10.64 5.39579C11 5.72912 11.4733 5.93579 12 5.93579C13.1067 5.93579 14 5.04246 14 3.93579C14 2.82912 13.1067 1.93579 12 1.93579C10.8933 1.93579 10 2.82912 10 3.93579C10 4.09579 10.0267 4.24912 10.06 4.40246L5.36 7.14246C5 6.80912 4.52667 6.60246 4 6.60246C2.89333 6.60246 2 7.49579 2 8.60246C2 9.70912 2.89333 10.6025 4 10.6025C4.52667 10.6025 5 10.3958 5.36 10.0625L10.0587 12.8078C10.0211 12.9587 10.0014 13.1136 10 13.2691C10 13.6647 10.1173 14.0514 10.3371 14.3803C10.5568 14.7092 10.8692 14.9655 11.2346 15.1169C11.6001 15.2683 12.0022 15.3079 12.3902 15.2307C12.7781 15.1535 13.1345 14.963 13.4142 14.6833C13.6939 14.4036 13.8844 14.0473 13.9616 13.6593C14.0387 13.2713 13.9991 12.8692 13.8478 12.5038C13.6964 12.1383 13.44 11.8259 13.1111 11.6062C12.7822 11.3864 12.3956 11.2691 12 11.2691Z" fill="white"/>
</svg>
