<svg width="61" height="61" viewBox="0 0 61 61" fill="none" xmlns="http://www.w3.org/2000/svg">
<g clip-path="url(#clip0_103_5481)">
<path d="M57.1194 21.7612C56.3277 19.3097 56.6652 15.6296 54.6074 12.7882C52.5334 9.92438 48.9262 9.11039 46.8894 7.6207C44.874 6.14672 42.999 2.93918 39.6089 1.83293C36.3144 0.757852 32.9455 2.21672 30.3334 2.21672C27.7216 2.21672 24.3529 0.7575 21.0579 1.83281C17.6683 2.93883 15.7918 6.14707 13.7777 7.62035C11.7431 9.10828 8.13326 9.92449 6.05962 12.7879C4.00357 15.627 4.33767 19.3154 3.54736 21.7611C2.79525 24.0888 0.333374 26.8825 0.333374 30.5003C0.333374 34.1203 2.79244 36.9032 3.54736 39.2393C4.33908 41.6909 4.00158 45.3709 6.05939 48.2123C8.13326 51.0763 11.7403 51.8902 13.7774 53.38C15.7924 54.8537 17.6677 58.0615 21.0579 59.1676C24.3501 60.242 27.7243 58.7838 30.3334 58.7838C32.9388 58.7838 36.3208 60.2405 39.6089 59.1677C42.9985 58.0617 44.8739 54.8542 46.889 53.3802C48.9236 51.8923 52.5335 51.0761 54.6071 48.2127C56.6633 45.3735 56.329 41.6854 57.1194 39.2394C57.8715 36.9116 60.3334 34.118 60.3334 30.5003C60.3334 26.8805 57.8749 24.0984 57.1194 21.7612ZM52.6591 37.798C51.7363 40.6545 51.978 43.8512 50.8108 45.463C49.6279 47.0962 46.5202 47.8423 44.1222 49.5963C41.7505 51.3308 40.0882 54.0804 38.1548 54.7112C36.3258 55.3082 33.345 54.0961 30.3335 54.0961C27.3 54.0961 24.3499 55.3107 22.512 54.7112C20.5789 54.0804 18.919 51.3327 16.5446 49.5962C14.1608 47.8528 11.0354 47.0914 9.85591 45.4628C8.69248 43.8564 8.92509 40.6375 8.00787 37.7981C7.1088 35.0162 5.02087 32.6074 5.02087 30.5003C5.02087 28.391 7.10693 25.9905 8.00763 23.2025C8.93048 20.3462 8.68873 17.1492 9.85591 15.5375C11.0381 13.9054 14.1481 13.1569 16.5446 11.4042C18.9239 9.6641 20.5758 6.92109 22.5118 6.28934C24.3393 5.69309 27.3299 6.90445 30.3333 6.90445C33.3723 6.90445 36.315 5.68898 38.1547 6.28934C40.0876 6.92004 41.749 9.66879 44.1222 11.4043C46.5057 13.1477 49.6313 13.9091 50.8108 15.5377C51.9745 17.1444 51.7406 20.36 52.6589 23.2023V23.2024C53.5579 25.9843 55.6459 28.3931 55.6459 30.5003C55.6459 32.6095 53.5598 35.01 52.6591 37.798ZM41.1314 22.9774C42.0467 23.8928 42.0467 25.3767 41.1314 26.292L29.4002 38.0231C28.4849 38.9385 27.0008 38.9384 26.0856 38.0231L19.5355 31.473C18.6201 30.5577 18.62 29.0737 19.5354 28.1585C20.4507 27.2433 21.9349 27.2432 22.8499 28.1585L27.7428 33.0513L37.8166 22.9775C38.732 22.0622 40.216 22.0622 41.1314 22.9774Z" fill="#242424"/>
</g>
<defs>
<clipPath id="clip0_103_5481">
<rect width="60" height="60" fill="white" transform="translate(0.333374 0.5)"/>
</clipPath>
</defs>
</svg>
