<?xml version="1.0" encoding="utf-8"?>
<svg viewBox="0 0 64 80" xmlns="http://www.w3.org/2000/svg">
  <g transform="matrix(1, 0, 0, 1, 0.45889103412628174, 10.248565673828125)">
    <path d="M58.17,51.36,44.89,16.65A3,3,0,0,0,43.31,15L30.68,9.34A12,12,0,1,0,9.4,19.19L6.88,21.71A3,3,0,0,0,6,23.83V61a3,3,0,0,0,3,3H37a3,3,0,0,0,2.94-2.45l16.5-6.31a3,3,0,0,0,1.73-3.88ZM9,12A10,10,0,0,1,28.27,8.26L23.41,6.09h0a1,1,0,0,0-1.12.2L10.83,17.75A10,10,0,0,1,9,12ZM38,61a1,1,0,0,1-1,1H9a1,1,0,0,1-1-1V23.83a1,1,0,0,1,.29-.71l2.44-2.44A12,12,0,0,0,18.41,24a5,5,0,1,0-.4-2,10,10,0,0,1-5.86-2.68L23,8.41,37.71,23.12a1,1,0,0,1,.29.71ZM23.93,21.89a1,1,0,0,0-1.29-.57A9.77,9.77,0,0,1,20,22,3,3,0,1,1,23,25a3,3,0,0,1-2.32-1.12,12,12,0,0,0,2.68-.7A1,1,0,0,0,23.93,21.89Zm32.35,31a1,1,0,0,1-.56.53L40,59.39V23.83a3,3,0,0,0-.88-2.12L27.54,10.12l15,6.69a.94.94,0,0,1,.52.55L56.3,52.08A1,1,0,0,1,56.28,52.84Z"/>
    <path d="M35,44H11a1,1,0,0,0,0,2H35a1,1,0,0,0,0-2Z"/>
    <path d="M35,50H11a1,1,0,0,0,0,2H35a1,1,0,0,0,0-2Z"/>
    <path d="M35,56H11a1,1,0,0,0,0,2H35a1,1,0,0,0,0-2Z"/>
    <path d="M10.6,39.91a.64.64,0,0,0,.19.05l.32,0,.32,0a.83.83,0,0,0,.2-.05.2.2,0,0,0,.1-.07.17.17,0,0,0,0-.1V36.05c0-.28,0-.55,0-.81s0-.52,0-.78h0c.08.21.18.43.29.66s.2.44.31.64l1.75,3.3a4.91,4.91,0,0,0,.25.44,1.11,1.11,0,0,0,.23.28.62.62,0,0,0,.25.14,1.66,1.66,0,0,0,.33,0h.61a.52.52,0,0,0,.21,0,.35.35,0,0,0,.17-.09.48.48,0,0,0,.12-.16.56.56,0,0,0,0-.23V33.09a.15.15,0,0,0,0-.09.21.21,0,0,0-.1-.08.64.64,0,0,0-.19-.05h-.64l-.2.05A.31.31,0,0,0,15,33a.16.16,0,0,0,0,.09v3.32c0,.25,0,.51,0,.79s0,.54,0,.8h0l-.2-.44-.22-.45-.22-.45-.24-.46-1.38-2.58a2.9,2.9,0,0,0-.2-.36.78.78,0,0,0-.21-.23.71.71,0,0,0-.25-.11,1.2,1.2,0,0,0-.35,0H11a.52.52,0,0,0-.37.13.48.48,0,0,0-.15.38v6.35a.17.17,0,0,0,0,.1A.2.2,0,0,0,10.6,39.91Z"/>
    <path d="M19.38,39.94h3.54a.12.12,0,0,0,.09,0,.22.22,0,0,0,.07-.09.61.61,0,0,0,0-.17,1.87,1.87,0,0,0,0-.27,1.84,1.84,0,0,0,0-.26.61.61,0,0,0,0-.17.2.2,0,0,0-.07-.1.12.12,0,0,0-.09,0H20.38v-2h2.14a.16.16,0,0,0,.09,0,.2.2,0,0,0,.06-.09.39.39,0,0,0,0-.17,1.72,1.72,0,0,0,0-.26,1.84,1.84,0,0,0,0-.26.43.43,0,0,0,0-.17.2.2,0,0,0-.06-.09l-.09,0H20.38V34H22.9A.14.14,0,0,0,23,34a.26.26,0,0,0,.07-.1,1.46,1.46,0,0,0,0-.17,2,2,0,0,0,0-.26,2.1,2.1,0,0,0,0-.27c0-.07,0-.13,0-.18a.22.22,0,0,0-.07-.09.14.14,0,0,0-.09,0H19.38a.49.49,0,0,0-.31.11.43.43,0,0,0-.12.34v6.16a.45.45,0,0,0,.12.35A.48.48,0,0,0,19.38,39.94Z"/>
    <path d="M26.65,39.58a.71.71,0,0,0,.08.21.4.4,0,0,0,.16.12,1,1,0,0,0,.3.05l.5,0,.49,0a1,1,0,0,0,.29-.05.28.28,0,0,0,.15-.13.52.52,0,0,0,.08-.2l1.07-4.48h0l1.13,4.48a.51.51,0,0,0,.08.21.31.31,0,0,0,.15.12,1.17,1.17,0,0,0,.3.05l.5,0,.46,0a1,1,0,0,0,.29-.05.41.41,0,0,0,.18-.12,1.09,1.09,0,0,0,.09-.21l1.62-6.15a1.57,1.57,0,0,0,.05-.32.2.2,0,0,0-.05-.17.31.31,0,0,0-.19-.08h-.77a.8.8,0,0,0-.22,0,.27.27,0,0,0-.11.1,1.55,1.55,0,0,0,0,.15L32,38.55h0l-1.33-5.37a1.07,1.07,0,0,0-.06-.17.23.23,0,0,0-.12-.1.72.72,0,0,0-.24,0h-.81a1.11,1.11,0,0,0-.24,0,.4.4,0,0,0-.12.1.69.69,0,0,0,0,.17l-1.29,5.37h0l-1.24-5.41a.53.53,0,0,0,0-.16.16.16,0,0,0-.1-.08.63.63,0,0,0-.23,0h-.84a.38.38,0,0,0-.22.08.19.19,0,0,0-.07.17,1.8,1.8,0,0,0,.06.31Z"/>
  </g>
</svg>