<svg width="61" height="61" viewBox="0 0 61 61" fill="none" xmlns="http://www.w3.org/2000/svg">
<g clip-path="url(#clip0_103_5489)">
<path d="M56.0146 31.6019V4.27964C56.0146 3.30489 55.2243 2.51465 54.2496 2.51465H6.96174C5.98699 2.51465 5.19675 3.30489 5.19675 4.27964V33.78C4.34531 33.904 3.51295 34.2346 2.77659 34.7812C0.455278 36.4273 -0.0937517 40.1109 1.85068 42.3827L9.80055 52.0204C14.7216 57.7798 19.9491 58.4854 27.7205 58.4854C34.3894 58.4854 37.371 58.5148 43.1831 57.1905L48.8426 55.8369C49.7603 57.1184 51.2171 57.9485 52.8549 57.9485H55.6429C58.4129 57.9485 60.6666 55.5744 60.6666 52.6561V36.8784C60.6667 34.092 58.6116 31.8031 56.0146 31.6019ZM48.0813 35.2326L45.7296 34.0382C41.863 32.0865 37.3925 32.0142 33.4648 33.8403C32.3932 34.2618 30.056 35.6759 28.8437 35.6286H20.6834C17.9766 35.6286 15.7743 37.8307 15.7743 40.5376V41.8247C15.7591 41.8087 15.7433 41.7936 15.7283 41.7773L9.90091 35.4519C9.54827 35.0692 9.15209 34.7489 8.72684 34.4919V16.981H23.1707V23.451C23.1707 24.4257 23.9609 25.2159 24.9357 25.2159H36.0729C37.0476 25.2159 37.8379 24.4257 37.8379 23.451V16.981H52.4847V31.6018C50.4225 31.7611 48.7029 33.2364 48.0813 35.2326ZM26.7006 16.981H34.3078V21.686H26.7006V16.981ZM52.4846 13.451H37.8379V6.04463H52.4847V13.451H52.4846ZM34.3079 6.04463V13.4511H26.7007V6.04463H34.3079ZM23.1706 6.04463V13.4511H8.72673V6.04463H23.1706ZM42.3639 53.7568C36.9948 54.9865 33.7612 54.9367 27.7838 54.9367C20.4885 54.9367 16.9636 54.8188 12.5238 49.774L4.57394 40.1363C3.19113 38.3357 5.69577 36.2101 7.30473 37.8435L13.1321 44.169C14.6723 45.7941 16.6103 46.6885 18.9991 46.7411H35.1556C36.1303 46.7411 36.9206 45.9508 36.9206 44.9761C36.9206 44.0013 36.1303 43.2111 35.1556 43.2111H19.3042V40.5373C19.3042 39.777 19.9228 39.1583 20.6832 39.1583H28.8436C30.682 39.29 33.3355 37.7549 34.9529 37.041C37.8946 35.6733 41.2429 35.7274 44.135 37.1872L47.8314 39.0646V52.4489L42.3639 53.7568ZM57.1367 52.656C57.1367 53.6278 56.4666 54.4184 55.643 54.4184H52.855C52.0313 54.4184 51.3613 53.6278 51.3613 52.656V36.8784C51.3613 35.9066 52.0315 35.1159 52.855 35.1159H55.643C56.4666 35.1159 57.1367 35.9065 57.1367 36.8784V52.656Z" fill="#242424"/>
</g>
<defs>
<clipPath id="clip0_103_5489">
<rect width="60" height="60" fill="white" transform="translate(0.666687 0.5)"/>
</clipPath>
</defs>
</svg>
