<svg width="34" height="33" viewBox="0 0 34 33" fill="none" xmlns="http://www.w3.org/2000/svg">
<path d="M30.0317 9.67638H12.5714M9.39679 9.67638H4.63489M30.0317 24.9613H12.5714M9.39679 24.9613H4.63489M22.0952 17.3188H4.63489M30.0317 17.3188H25.2698M10.9841 6.6194C11.4051 6.6194 11.8088 6.78044 12.1065 7.06708C12.4042 7.35373 12.5714 7.74251 12.5714 8.14789V11.2049C12.5714 11.6102 12.4042 11.999 12.1065 12.2857C11.8088 12.5723 11.4051 12.7334 10.9841 12.7334C10.5631 12.7334 10.1594 12.5723 9.8617 12.2857C9.56403 11.999 9.39679 11.6102 9.39679 11.2049V8.14789C9.39679 7.74251 9.56403 7.35373 9.8617 7.06708C10.1594 6.78044 10.5631 6.6194 10.9841 6.6194V6.6194ZM10.9841 21.9043C11.4051 21.9043 11.8088 22.0653 12.1065 22.352C12.4042 22.6386 12.5714 23.0274 12.5714 23.4328V26.4898C12.5714 26.8951 12.4042 27.2839 12.1065 27.5706C11.8088 27.8572 11.4051 28.0182 10.9841 28.0182C10.5631 28.0182 10.1594 27.8572 9.8617 27.5706C9.56403 27.2839 9.39679 26.8951 9.39679 26.4898V23.4328C9.39679 23.0274 9.56403 22.6386 9.8617 22.352C10.1594 22.0653 10.5631 21.9043 10.9841 21.9043ZM23.6825 14.2618C24.1035 14.2618 24.5072 14.4229 24.8049 14.7095C25.1026 14.9962 25.2698 15.385 25.2698 15.7903V18.8473C25.2698 19.2527 25.1026 19.6415 24.8049 19.9281C24.5072 20.2148 24.1035 20.3758 23.6825 20.3758C23.2615 20.3758 22.8578 20.2148 22.5601 19.9281C22.2624 19.6415 22.0952 19.2527 22.0952 18.8473V15.7903C22.0952 15.385 22.2624 14.9962 22.5601 14.7095C22.8578 14.4229 23.2615 14.2618 23.6825 14.2618V14.2618Z" stroke="black" stroke-linecap="round" stroke-linejoin="round"/>
</svg>
